<svg xmlns="http://www.w3.org/2000/svg" width="91" height="110" viewBox="0 0 91 110" fill="none">
<g>
<path d="M52.6748 82.6262C52.8293 82.6262 53.0612 82.6615 53.3701 82.7317C53.6789 82.7878 53.9946 82.8789 54.3174 83.0051C54.6542 83.1174 54.9355 83.2576 55.1602 83.426C55.3988 83.5945 55.5186 83.7847 55.5186 83.9954C55.5185 84.2059 55.4479 84.5004 55.3076 84.8792C55.1813 85.2442 55.0124 85.6311 54.8018 86.0383C54.6053 86.4313 54.388 86.7823 54.1494 87.0911C53.981 87.3156 53.7915 87.4911 53.5811 87.6174C53.3705 87.7297 53.1384 87.8142 52.8857 87.8704C51.0043 88.2214 49.4455 88.6844 48.21 89.26C46.9884 89.8357 46.1107 90.538 45.5771 91.3665C45.1139 92.0965 44.7631 93.0933 44.5244 94.3567C44.2998 95.6063 44.1383 97.0463 44.04 98.675C43.9418 100.318 43.8434 102.08 43.7451 103.961C43.689 104.944 43.6323 105.808 43.5762 106.552C43.5341 107.31 43.4923 107.949 43.4502 108.468H42.7129C42.6708 107.457 42.6494 106.039 42.6494 104.214C42.6494 102.613 42.6643 101.195 42.6924 99.9592C42.7345 98.7237 42.8115 97.6074 42.9238 96.6106C43.0502 95.6137 43.233 94.6729 43.4717 93.7883C43.7525 92.7354 44.2081 91.6542 44.8398 90.5452C45.2891 89.7729 45.7744 89.1133 46.2939 88.5657C46.8134 88.0041 47.41 87.4984 48.084 87.0491C48.7719 86.5998 49.5579 86.1571 50.4424 85.7219C50.7793 84.8094 51.1162 84.0651 51.4531 83.4895C51.8041 82.9139 52.2115 82.6263 52.6748 82.6262ZM89.1318 76.8206C89.2722 77.1574 89.4059 77.4591 89.5322 77.7258C89.6726 77.9925 89.8128 78.2172 89.9531 78.3997C90.1495 78.6241 90.2833 78.8136 90.3535 78.968C90.4237 79.1084 90.459 79.2634 90.459 79.4319C90.459 79.7407 90.3466 80.0916 90.1221 80.4846C89.9115 80.8778 89.6517 81.222 89.3428 81.5168C89.0339 81.8117 88.7249 81.9592 88.416 81.9592C88.1914 81.9592 87.9594 81.91 87.7207 81.8118C87.4963 81.7136 87.2648 81.6225 87.0264 81.5383C86.7877 81.4401 86.5278 81.3909 86.2471 81.3909C86.0927 81.3909 85.8819 81.4958 85.6152 81.7063C85.3625 81.9169 85.0322 82.212 84.625 82.5911C84.1617 83.0263 83.8035 83.3631 83.5508 83.6018C83.2981 83.8264 83.0735 84.0158 82.877 84.1702C82.6804 84.3106 82.4419 84.4795 82.1611 84.676C81.2485 85.3079 80.2863 85.7996 79.2754 86.1506C78.2645 86.5016 77.2744 86.7466 76.3057 86.887C75.3511 87.0273 74.4879 87.0979 73.7158 87.0979C73.3788 87.0979 73.1533 87.0562 73.041 86.9719C73.0021 86.9416 72.9713 86.9076 72.9443 86.8733C72.5318 86.7991 72.1534 86.6599 71.8105 86.4524C71.4175 86.2138 71.0517 86.094 70.7148 86.094C69.9147 86.0941 69.3104 86.3121 68.9033 86.7473C68.5105 87.1543 68.3145 87.5759 68.3145 88.011C68.3145 88.2636 68.4687 88.4744 68.7773 88.6428L69.3457 88.9583C69.5419 89.0564 69.7038 89.1691 69.8301 89.2952C69.9564 89.4355 70.0195 89.612 70.0195 89.8225C70.0195 89.866 70.0094 89.9053 69.9922 89.9417C70.014 89.9823 70.0263 90.0215 70.0264 90.0608C70.0264 90.3275 69.9353 90.6506 69.7529 91.0295C69.5845 91.4084 69.3597 91.7455 69.0791 92.0403C68.8124 92.3351 68.5311 92.4826 68.2363 92.4827C68.0679 92.4827 67.8293 92.4056 67.5205 92.2512C67.3661 92.167 67.2324 92.0964 67.1201 92.0403C67.0079 91.9842 66.9094 91.9498 66.8252 91.9358C66.6567 91.8937 66.4952 91.8723 66.3408 91.8723C66.0179 91.8723 65.7163 92.0199 65.4355 92.3147C65.1548 92.6095 64.7474 93.1571 64.2139 93.9573C63.4465 95.1211 62.6261 95.753 61.7539 95.8567C61.7385 95.8587 61.7233 95.8609 61.708 95.8625C61.6516 95.868 61.595 95.8712 61.5381 95.8723C61.5335 95.8724 61.529 95.8733 61.5244 95.8733C61.5232 95.8733 61.5217 95.8723 61.5205 95.8723C61.5127 95.8724 61.5049 95.8743 61.4971 95.8743C61.4753 95.8743 61.4536 95.8724 61.4326 95.8713C60.4402 95.8488 59.7054 95.4575 59.2285 94.6946C58.7511 93.8943 58.5127 92.7215 58.5127 91.177C58.5127 90.0117 58.5331 88.8741 58.5752 87.7649C58.6314 86.6558 58.6945 85.6378 58.7646 84.7112C58.8348 83.7705 58.9128 82.9632 58.9971 82.2893C59.0813 81.6015 59.1583 81.1031 59.2285 80.7942C59.397 80.0922 59.6494 79.3267 59.9863 78.4983L60.4287 78.6243C60.2743 79.579 60.1555 80.801 60.0713 82.2893C59.987 83.7776 59.9443 85.5257 59.9443 87.5334C59.9443 88.0669 59.9583 88.6285 59.9863 89.218C60.0284 89.7936 60.1268 90.3347 60.2812 90.8401C60.4497 91.3454 60.7097 91.7594 61.0605 92.0823C61.4227 92.3887 61.9163 92.5427 62.541 92.5452C63.3356 92.5433 63.9769 92.3614 64.4658 91.9983C64.9572 91.6332 65.4629 91.0997 65.9824 90.3977C66.3531 89.8992 66.6953 89.5645 67.0078 89.3918C66.9953 89.3289 66.9873 89.2619 66.9873 89.1907C66.9874 89.0082 67.0505 88.7268 67.1768 88.3479C67.3031 87.9548 67.4924 87.526 67.7451 87.0627C67.9838 86.5854 68.2724 86.1223 68.6094 85.6731C68.9603 85.21 69.353 84.8098 69.7881 84.4729C70.3215 84.0658 70.8348 83.8616 71.3262 83.8616C71.7611 83.8616 72.1262 83.9462 72.4209 84.1145C72.8281 83.5529 73.1937 83.0825 73.5166 82.7034C73.8533 82.3105 74.1338 81.9947 74.3584 81.7561C75.1306 80.9137 75.8191 80.253 76.4229 79.7756C77.0405 79.2984 77.6095 78.9689 78.1289 78.7864C78.6481 78.5899 79.1394 78.4915 79.6025 78.4915C80.1217 78.4915 80.5155 78.6244 80.7822 78.8909C81.0489 79.1576 81.1826 79.4741 81.1826 79.8391C81.1826 80.3165 81.0768 80.8222 80.8662 81.3557C80.6556 81.8891 80.3957 82.4015 80.0869 82.8928C79.778 83.3842 79.4551 83.8268 79.1182 84.22C78.7813 84.613 78.4861 84.9221 78.2334 85.1467C78.0534 85.3032 77.8684 85.4493 77.6797 85.5872C78.2163 85.4472 78.7559 85.2851 79.2969 85.0969C80.1392 84.8021 80.9049 84.416 81.5928 83.9387C82.2806 83.4474 82.8839 82.9415 83.4033 82.4221C83.9228 81.8886 84.3441 81.4182 84.667 81.011C85.369 80.1405 85.9313 79.5374 86.3525 79.2004C86.7878 78.8635 87.1877 78.6454 87.5527 78.5471C87.6651 78.3506 87.8052 78.1325 87.9736 77.8938C88.1421 77.6552 88.3111 77.438 88.4795 77.2415C88.648 77.0309 88.7816 76.8908 88.8799 76.8206H89.1318ZM33.9521 85.1116C34.7391 85.1116 35.274 85.8371 35.5557 87.2883C35.6633 87.8186 35.5844 88.4606 35.3193 89.2141C35.2448 89.3723 35.1335 89.6379 34.9844 90.01C34.8849 90.3171 34.6113 90.9636 34.1641 91.9495C33.7333 92.7961 33.1449 93.2472 32.3994 93.303C31.8859 93.3402 31.3684 93.4986 30.8467 93.7776C30.5073 93.9542 30.3371 93.917 30.3369 93.6663C30.3369 93.5081 30.7177 93.1773 31.4795 92.675C31.9765 92.3401 32.4737 92.0094 32.9707 91.6838C33.9644 90.9026 34.4616 90.3124 34.4619 89.9124C34.3625 89.9124 34.2134 89.9352 34.0146 89.9817C33.8159 90.0375 33.6668 90.0657 33.5674 90.0657C32.5651 90.0657 32.0645 89.6514 32.0645 88.8235C32.0645 88.5072 32.1758 88.1396 32.3994 87.7209C32.6642 87.2099 32.8054 86.931 32.8223 86.884C33.0045 86.2142 33.1491 85.7762 33.2568 85.5715C33.4224 85.2649 33.6543 85.1117 33.9521 85.1116ZM35.5049 71.0706C35.5697 71.0706 35.6025 71.0928 35.6025 71.137C35.6025 71.3405 35.1659 71.8587 34.2939 72.6907C33.7466 73.2127 32.8423 73.7302 31.5811 74.2434C30.5793 74.6328 29.5823 75.0229 28.5898 75.4124C26.8215 76.2109 25.5884 77.1219 24.8877 78.1438C25.034 78.2369 25.5406 78.3211 26.4102 78.3918C27.4554 78.4656 28.374 78.4707 29.165 78.4075C29.4471 78.3864 29.6586 78.3813 29.7998 78.3918C30.1577 78.3918 30.3369 78.4974 30.3369 78.7083C30.3362 78.8035 30.0958 79.0779 29.6162 79.5305C28.8725 80.2366 28.2467 80.8745 27.7383 81.4436C27.1638 82.1077 26.5891 82.7666 26.0146 83.4202C25.5 83.9609 25.0456 84.3701 24.6543 84.6516C24.4656 84.9348 24.2664 85.0764 24.0566 85.0764C24.028 85.0764 23.9909 85.0652 23.9443 85.0452C23.8188 85.0883 23.7036 85.1116 23.5986 85.1116C23.4107 85.1113 23.3165 84.9639 23.3164 84.6692C23.3164 84.6541 23.317 84.6385 23.3174 84.6233C23.253 84.5726 23.1833 84.5194 23.1113 84.4602C22.6204 84.0493 22.3246 83.7592 22.2227 83.5911C21.2405 84.9923 20.1239 85.9922 18.873 86.5901C16.0379 87.9446 12.2902 88.6213 7.62988 88.6213C2.8771 88.6213 0.500277 87.6082 0.5 85.5813C0.5 85.4132 0.527443 85.1746 0.583008 84.8665C0.666373 84.4649 0.717786 84.1705 0.736328 83.9836C0.801175 83.4606 0.861408 82.9374 0.916992 82.4143C0.981844 82.0593 1.08369 81.8811 1.22266 81.8811C1.36159 81.8811 1.4316 81.9983 1.43164 82.2317V82.47C1.42238 82.582 1.417 82.6755 1.41699 82.7502C1.41699 83.4229 1.66324 83.918 2.1543 84.2356C2.7195 84.6185 3.66453 84.9505 4.98926 85.2307C6.38815 85.5296 7.81947 85.6789 9.2832 85.679C14.5088 85.679 18.4282 84.8616 21.041 83.2268C21.5969 82.8812 22.0415 82.4934 22.375 82.0637C22.6066 81.7554 22.7829 81.6018 22.9033 81.6018C23.0145 81.6018 23.0703 81.6856 23.0703 81.8538C23.0702 81.9659 22.9816 82.1949 22.8057 82.5403C23.1694 82.7651 23.5674 82.9168 23.998 82.9993C24.1077 82.9002 24.2199 82.8508 24.334 82.8508C24.7012 82.8506 25.2849 82.5184 26.085 81.8547C26.7252 81.2751 27.3656 80.7002 28.0059 80.1311C27.9164 80.1311 27.8129 80.1336 27.6953 80.1389L26.9043 80.1858C26.7867 80.1911 26.6832 80.1946 26.5938 80.1946C25.0289 80.1946 24.1563 80.0085 23.9746 79.6379C23.7896 79.7762 23.5705 79.8459 23.3164 79.8459C23.3166 79.6776 23.4979 79.2487 23.8594 78.5588C24.2953 77.7092 24.7823 76.9916 25.3203 76.4075C26.7396 74.8587 29.4902 73.3185 33.5713 71.7874C34.8603 71.3095 35.5049 71.0706 35.5049 71.0706ZM46.6875 79.8459C47.0153 79.8461 47.305 79.983 47.5557 80.2571C47.7775 80.5211 47.8886 80.816 47.8887 81.1409C47.8887 82.3291 47.3478 83.675 46.2676 85.178C45.0618 86.8536 43.6919 87.8493 42.1582 88.1643C41.811 88.2354 41.4874 88.2707 41.1885 88.2708C40.2238 88.2708 39.548 87.8745 39.1621 87.0823C39.0078 86.595 38.8485 86.1122 38.6846 85.635C37.99 86.803 37.0157 87.7987 35.7617 88.6213C35.6556 88.6213 35.6025 88.5143 35.6025 88.301C35.6027 87.7023 35.7519 87.3209 36.0508 87.1584C36.9382 86.6506 37.7443 85.8127 38.4678 84.6448C39.0947 83.6193 39.4523 83.1067 39.5391 83.1067C39.6933 83.1073 39.9061 83.3304 40.1758 83.7766C40.4844 84.2741 40.8601 84.6098 41.3037 84.7825C42.2876 83.6857 43.267 82.5882 44.2412 81.4915C45.2927 80.3947 46.1087 79.8459 46.6875 79.8459ZM33.8438 81.6018C34.0128 81.6019 34.3294 81.7596 34.7939 82.0754C35.322 82.4507 35.592 82.8109 35.6025 83.1565C35.6131 83.502 35.3804 83.9217 34.9053 84.4153C34.4617 84.8695 34.1442 85.1017 33.9541 85.1116C33.4366 84.6969 32.8561 84.2868 32.2119 83.8821C32.064 83.8031 32.0529 83.6941 32.1797 83.5559C33.0877 82.6083 33.6429 81.9573 33.8438 81.6018ZM45.2197 81.6008C44.4642 81.6008 43.5987 82.7198 42.623 84.9563C42.8429 85.0595 43.0737 85.1115 43.3154 85.1116C43.9829 85.1115 44.6363 84.7881 45.2744 84.1418C45.8465 83.5601 46.1328 83.0425 46.1328 82.5901C46.1327 82.3446 46.0485 82.1247 45.8799 81.9309C45.6892 81.7113 45.469 81.6009 45.2197 81.6008ZM77.8545 81.1653C77.307 81.1653 76.7733 81.299 76.2539 81.5657C75.7485 81.8184 75.2009 82.2537 74.6113 82.8713C74.3305 83.1662 74.0772 83.4399 73.8525 83.6926C73.6419 83.9453 73.4601 84.1848 73.3057 84.4094C73.6425 84.5357 74.0289 84.5989 74.4639 84.5989C75.4607 84.5989 76.5139 84.3102 77.623 83.7346C78.7459 83.1591 79.3074 82.605 79.3076 82.0715C79.3075 81.7909 79.1534 81.5726 78.8447 81.4182C78.5499 81.2498 78.2194 81.1653 77.8545 81.1653ZM33.8574 78.0911C34.0161 78.0912 34.328 78.249 34.793 78.5647C35.3217 78.9399 35.592 79.3011 35.6025 79.6467C35.6129 79.9922 35.38 80.412 34.9043 80.9055C34.4602 81.3597 34.1425 81.5919 33.9521 81.6018C33.434 81.1871 32.8521 80.7819 32.207 80.387C32.0593 80.2981 32.0541 80.1843 32.1914 80.0461C33.1009 79.0982 33.6565 78.4465 33.8574 78.0911ZM33.8574 74.5813C34.0161 74.5814 34.3279 74.7391 34.793 75.0549C35.3217 75.4301 35.592 75.7904 35.6025 76.136C35.6131 76.4815 35.3801 76.9011 34.9043 77.3948C34.4601 77.849 34.1425 78.0812 33.9521 78.0911C33.434 77.6764 32.8521 77.2711 32.207 76.8762C32.0595 76.7875 32.0544 76.6743 32.1914 76.5364C33.1007 75.5887 33.6564 74.9368 33.8574 74.5813ZM74.6025 72.8254C75.2482 73.2325 75.6835 73.5769 75.9082 73.8577C76.1329 74.1244 76.2451 74.3778 76.2451 74.6165C76.2448 75.1219 75.6621 75.7818 74.4971 76.5959H74.3291C73.7394 75.9923 73.1567 75.4726 72.5811 75.0374V74.8479C72.7074 74.6654 72.8967 74.4334 73.1494 74.1526C73.3881 73.8577 73.634 73.584 73.8867 73.3313C74.1254 73.0645 74.3008 72.8956 74.4131 72.8254H74.6025Z" fill="white"/>
</g>
<path d="M75.2161 13.1701L74.9503 12.8825C74.2051 22.4599 69.4017 31.8781 60.5402 41.1371C63.7339 44.4954 65.271 47.6963 65.1515 50.7399C65.0394 53.599 63.6559 55.9002 61.0011 57.6435C59.7262 54.8223 56.538 51.3256 51.4365 47.1535C43.879 53.7849 34.6125 59.2407 23.6371 63.521C15.2875 66.7959 10.2827 68.4008 8.62257 68.3357C7.88473 68.3067 7.52305 68.1078 7.53753 67.7389C6.96791 65.7767 16.0771 59.6219 34.865 49.2745C39.7731 46.6035 43.6613 44.0311 46.5295 41.5572C45.3558 40.8646 43.5357 38.9919 41.069 35.9393C37.993 31.939 36.4134 28.644 36.3303 26.0543C36.3593 20.6056 40.4681 14.7626 48.6568 8.52552C56.5615 2.46203 63.3233 -0.367123 68.9421 0.038073C73.6385 0.407082 75.7299 4.78441 75.2161 13.1701ZM63.8935 19.238C64.031 15.7333 62.1295 13.5803 58.1889 12.7791C55.9935 12.2311 53.6344 12.3233 51.1117 13.0557C48.2127 13.958 46.539 15.4165 46.0905 17.4311C45.6854 18.3389 45.4647 19.2539 45.4285 20.1762C45.2874 23.7732 47.122 27.6324 50.9323 31.7539C51.4567 32.5134 52.4278 33.66 53.8456 35.1935C54.9108 33.9421 56.306 32.5189 58.0312 30.9239C58.4291 30.2006 59.3578 28.8976 60.8172 27.0151L60.8281 26.7384C62.7921 23.7672 63.8139 21.2671 63.8935 19.238Z" fill="white"/>
<defs>










</defs>
</svg>